<?xml version="1.0" encoding="UTF-8" ?>
<!DOCTYPE svg PUBLIC "-//W3C//DTD SVG 1.1//EN" "http://www.w3.org/Graphics/SVG/1.1/DTD/svg11.dtd">
<svg width="414pt" height="328pt" viewBox="0 0 414 328" version="1.1" xmlns="http://www.w3.org/2000/svg">
<g id="#ffffffff">
</g>
<g id="#1b1b1bff">
<path fill="#1b1b1b" opacity="1.00" d=" M 168.76 60.84 C 173.82 57.87 180.77 58.93 184.73 63.27 C 190.08 69.09 191.26 77.40 191.45 85.00 C 191.56 96.37 185.93 106.69 179.96 115.99 C 192.31 115.96 204.66 115.97 217.02 115.97 C 221.96 116.05 227.65 116.97 230.70 121.32 C 234.62 125.88 234.48 133.10 230.70 137.70 C 228.60 140.54 225.24 142.08 221.87 142.81 C 225.67 143.29 230.08 144.16 232.13 147.81 C 235.83 153.26 234.48 161.33 229.16 165.22 C 226.52 167.30 223.01 167.37 219.81 167.30 C 226.99 167.12 232.59 175.55 228.96 181.93 C 226.95 186.43 221.81 188.04 217.21 187.68 C 223.77 188.14 228.66 195.68 225.72 201.74 C 224.04 205.99 219.47 208.15 215.08 207.96 C 189.35 208.12 163.61 207.97 137.88 208.03 C 134.69 208.49 130.91 206.61 130.86 203.05 C 130.69 180.00 130.92 156.94 130.75 133.88 C 129.80 124.64 134.48 116.03 139.87 108.90 C 144.71 102.76 150.88 97.84 157.15 93.24 C 159.58 91.41 162.79 89.91 163.74 86.76 C 165.80 81.03 164.37 74.93 164.47 69.02 C 164.53 65.86 165.93 62.49 168.76 60.84 Z" />
<path fill="#1b1b1b" opacity="1.00" d=" M 88.40 125.47 C 96.92 125.12 105.47 125.46 114.00 125.31 C 116.39 125.42 119.28 124.95 121.10 126.89 C 122.57 128.16 122.82 130.17 122.75 131.99 C 122.72 159.35 122.75 186.70 122.74 214.06 C 123.06 217.18 120.40 220.16 117.21 219.95 C 107.81 220.03 98.41 220.06 89.01 219.93 C 85.93 220.02 83.41 217.09 83.74 214.07 C 83.74 186.36 83.72 158.65 83.75 130.94 C 83.58 128.28 85.70 125.65 88.40 125.47 Z" />
</g>
</svg>
